<svg xmlns="http://www.w3.org/2000/svg" viewBox="0 0 64 64" role="img" aria-label="Dmitry Popov — Software Engineer">
  <rect width="64" height="64" rx="12" fill="#0d1117"/>
  <rect x="2" y="2" width="60" height="60" rx="9" fill="#161b22" stroke="#30363d" stroke-width="1"/>
  <path d="M3 13 H61" stroke="#30363d" stroke-width="0.8" opacity="0.8"/>
  <circle cx="7.50" cy="7.50" r="2.1" fill="#ff5f57"/>
  <circle cx="15.00" cy="7.50" r="2.1" fill="#ffbd2e"/>
  <circle cx="22.50" cy="7.50" r="2.1" fill="#28c840"/>
  <g transform="translate(2.000 45.625) scale(0.02500 -0.02500)" fill="#7ee787"><path d="M460 -110Q372 -110 320.0 -66.5Q268 -23 275 56L290 220Q295 273 275.0 296.5Q255 320 190 320H75V400H190Q255 400 275.0 423.5Q295 447 290 500L275 664Q268 743 320.0 786.5Q372 830 460 830H505V750H460Q413 750 387.0 728.5Q361 707 365 664L380 500Q385 441 352.0 405.5Q319 370 244 363Q319 356 352.0 317.0Q385 278 380 220L365 56Q361 13 387.0 -8.5Q413 -30 460 -30H505V-110Z"/></g>
  <g transform="translate(17.000 45.625) scale(0.02500 -0.02500)" fill="#e6edf3"><path d="M268 -10Q186 -10 136.5 45.0Q87 100 87 194V355Q87 450 136.0 505.0Q185 560 268 560Q330 560 370.5 529.0Q411 498 419 445H420L418 570V730H508V0H418V105H417Q410 51 370.0 20.5Q330 -10 268 -10ZM298 68Q354 68 386.0 103.0Q418 138 418 200V350Q418 412 386.0 447.0Q354 482 298 482Q241 482 209.0 452.5Q177 423 177 355V195Q177 128 209.0 98.0Q241 68 298 68Z"/></g>
  <g transform="translate(32.000 45.625) scale(0.02500 -0.02500)" fill="#e6edf3"><path d="M92 -180V550H182V445H183Q190 499 230.0 529.5Q270 560 332 560Q415 560 464.0 505.5Q513 451 513 356V195Q513 100 464.0 45.0Q415 -10 332 -10Q270 -10 230.0 21.0Q190 52 183 105H180L182 -20V-180ZM302 68Q359 68 391.0 98.0Q423 128 423 195V355Q423 423 391.0 452.5Q359 482 302 482Q247 482 214.5 447.0Q182 412 182 350V200Q182 138 214.5 103.0Q247 68 302 68Z"/></g>
  <g transform="translate(47.000 45.625) scale(0.02500 -0.02500)" fill="#7ee787"><path d="M95 -110V-30H140Q187 -30 214.5 -8.5Q242 13 235 56L210 220Q201 277 230.0 316.5Q259 356 310 365Q259 373 230.0 408.0Q201 443 210 500L235 664Q242 707 214.5 728.5Q187 750 140 750H95V830H140Q199 830 243.5 810.5Q288 791 310.5 754.0Q333 717 325 664L300 500Q292 447 313.5 423.5Q335 400 400 400H525V320H400Q336 320 314.0 296.5Q292 273 300 220L325 56Q333 4 310.5 -33.5Q288 -71 243.5 -90.5Q199 -110 140 -110Z"/></g>
</svg>
